<svg xmlns="http://www.w3.org/2000/svg" viewBox="0 0 24 24" id="Facebook"><path d="M21.5 24.003h-5a.5.5 0 0 1-.5-.5v-9a.5.5 0 0 1 .5-.5h2.64l.667-2H16.5a.5.5 0 0 1-.5-.5v-3c0-1.378 1.122-2.5 2.5-2.5H20v-2h-1.5a4.505 4.505 0 0 0-4.5 4.5v3a.5.5 0 0 1-.5.5H11v2h2.5a.5.5 0 0 1 .5.5v9a.5.5 0 0 1-.5.5h-11a2.503 2.503 0 0 1-2.5-2.5v-19c0-1.378 1.122-2.5 2.5-2.5h19c1.378 0 2.5 1.122 2.5 2.5v19c0 1.378-1.122 2.5-2.5 2.5zm-4.5-1h4.5c.827 0 1.5-.673 1.5-1.5v-19c0-.827-.673-1.5-1.5-1.5h-19c-.827 0-1.5.673-1.5 1.5v19c0 .827.673 1.5 1.5 1.5H13v-8h-2.5a.5.5 0 0 1-.5-.5v-3a.5.5 0 0 1 .5-.5H13v-2.5c0-3.033 2.467-5.5 5.5-5.5h2a.5.5 0 0 1 .5.5v3a.5.5 0 0 1-.5.5h-2c-.827 0-1.5.673-1.5 1.5v2.5h3.5a.499.499 0 0 1 .474.659l-1 3a.5.5 0 0 1-.474.342H17v7.999z" fill="#d8a353" class="color000000 svgShape"></path></svg>